<svg width="25" height="25" viewBox="0 0 25 25" fill="none" xmlns="http://www.w3.org/2000/svg">
<path d="M8.1257 17.1875C12.6141 17.1875 16.251 13.3398 16.251 8.59375C16.251 3.84766 12.6141 0 8.1257 0C3.63727 0 0.000427532 3.84766 0.000427532 8.59375C0.000427532 10.4785 0.574666 12.2217 1.54735 13.6426C1.41063 14.1016 1.2075 14.5068 0.992649 14.8486C0.805142 15.1514 0.61373 15.3857 0.4731 15.5469C0.402785 15.625 0.344189 15.6885 0.305125 15.7275C0.285593 15.7471 0.269968 15.7617 0.262155 15.7666L0.254342 15.7764C0.0394914 15.9766 -0.0542618 16.3281 0.0316786 16.6455C0.117619 16.9629 0.355908 17.1875 0.625449 17.1875C1.47704 17.1875 2.33644 16.9141 3.05131 16.5771C3.4107 16.4062 3.74665 16.2158 4.03572 16.0205C5.23889 16.7627 6.63346 17.1875 8.1257 17.1875ZM17.501 8.59375C17.501 14.0771 13.6298 18.208 9.0437 18.7012C9.99295 22.334 13.1415 25 16.876 25C18.3682 25 19.7628 24.5752 20.966 23.833C21.259 24.0283 21.591 24.2188 21.9504 24.3896C22.6653 24.7266 23.5247 25 24.3763 25C24.6458 25 24.888 24.7803 24.97 24.458C25.0521 24.1357 24.9622 23.7842 24.7435 23.584L24.7356 23.5742C24.7278 23.5645 24.7122 23.5547 24.6927 23.5352C24.6536 23.4961 24.595 23.4375 24.5247 23.3545C24.3841 23.1934 24.1927 22.959 24.0051 22.6562C23.7903 22.3145 23.5872 21.9043 23.4504 21.4502C24.4231 20.0342 24.9974 18.291 24.9974 16.4014C24.9974 11.8701 21.6808 8.1543 17.4737 7.83203C17.4893 8.08105 17.4971 8.33496 17.4971 8.58887L17.501 8.59375Z" fill="black"/>
</svg>
