<svg width="25" height="26" viewBox="0 0 25 26" fill="none" xmlns="http://www.w3.org/2000/svg">
<path d="M12.5 0.617798C19.4037 0.617798 25 5.74869 25 12.0784C25 18.408 19.4037 23.5389 12.5 23.5389C5.59625 23.5389 0 18.408 0 12.0784C0 5.74869 5.59625 0.617798 12.5 0.617798ZM12.5 5.20202C12.1685 5.20202 11.8505 5.32277 11.6161 5.5377C11.3817 5.75262 11.25 6.04413 11.25 6.34808V12.0784C11.2501 12.3823 11.3818 12.6737 11.6163 12.8886L15.3663 16.3268C15.602 16.5356 15.9178 16.6511 16.2455 16.6485C16.5732 16.6458 16.8868 16.5253 17.1185 16.3128C17.3503 16.1003 17.4817 15.8129 17.4846 15.5124C17.4874 15.2119 17.3614 14.9224 17.1337 14.7063L13.75 11.6039V6.34808C13.75 6.04413 13.6183 5.75262 13.3839 5.5377C13.1495 5.32277 12.8315 5.20202 12.5 5.20202Z" fill="black"/>
</svg>
