<svg xmlns="http://www.w3.org/2000/svg" xml:space="preserve" fill-rule="evenodd" stroke-linejoin="round" stroke-miterlimit="2" clip-rule="evenodd" viewBox="0 0 591 160"><g fill-rule="nonzero"><path d="M200.68 33.81h8.948l13.247 39.012 13.161-39.012h8.853V79.95h-5.938V52.727c0-.965.022-2.52.065-4.663.043-2.197.064-4.555.064-7.02L225.924 79.95h-6.19l-13.246-38.905v1.394c0 1.125.027 2.893.075 5.198.054 2.304.08 4.019.08 5.09V79.95h-5.964V33.81ZM247.606 33.81h7.288l13.247 22.185 13.252-22.185h7.314l-17.426 27.544V79.95h-6.249V61.354L247.606 33.81Z"/></g><g fill-rule="nonzero"><path d="M323.373 75.266c-3.457 3.161-7.872 4.77-13.252 4.77-6.656 0-11.891-2.144-15.696-6.431-3.81-4.287-5.718-10.182-5.718-17.63 0-8.092 2.165-14.309 6.5-18.703 3.767-3.804 8.564-5.68 14.383-5.68 7.786 0 13.477 2.519 17.078 7.663 1.989 2.84 3.055 5.734 3.205 8.628H320.2c-.627-2.198-1.43-3.912-2.416-5.038-1.758-1.982-4.368-3-7.819-3-3.515 0-6.29 1.393-8.322 4.233-2.03 2.84-3.044 6.86-3.044 12.057 0 5.198 1.072 9.056 3.216 11.682 2.148 2.572 4.876 3.858 8.182 3.858 3.392 0 5.975-1.125 7.754-3.322.987-1.179 1.801-3 2.45-5.359h9.576c-.836 5.037-2.97 9.11-6.404 12.272ZM354.41 80.035c-6.612 0-11.665-1.822-15.165-5.412-4.688-4.394-7.03-10.771-7.03-19.077 0-8.467 2.342-14.844 7.03-19.078 3.5-3.644 8.553-5.412 15.166-5.412 6.618 0 11.671 1.768 15.17 5.412 4.668 4.234 6.999 10.61 6.999 19.078 0 8.306-2.331 14.683-6.999 19.077-3.499 3.59-8.552 5.412-15.17 5.412Zm9.143-12.432c2.24-2.84 3.36-6.86 3.36-12.057 0-5.198-1.126-9.217-3.376-12.058-2.251-2.84-5.295-4.233-9.126-4.233-3.826 0-6.886 1.393-9.164 4.233-2.283 2.84-3.424 6.86-3.424 12.058 0 5.198 1.141 9.217 3.424 12.057 2.278 2.84 5.338 4.233 9.164 4.233 3.831 0 6.88-1.393 9.142-4.233ZM389.596 78.749h-9.008v-46.3h14.067l8.413 36.386 8.354-36.386h13.906v46.3h-9.008V47.454c0-.911.011-2.197.032-3.805.022-1.607.033-2.894.033-3.751l-8.762 38.851h-9.388l-8.698-38.851c0 .857.011 2.144.032 3.751.022 1.608.027 2.894.027 3.805v31.295ZM450.75 62.083h-9.828V78.75h-9.608v-46.3h20.16c4.646 0 8.354 1.18 11.114 3.59 2.765 2.412 4.147 6.056 4.147 11.093 0 5.466-1.382 9.325-4.147 11.575-2.76 2.25-6.71 3.376-11.838 3.376Zm4.523-9.645c1.254-1.072 1.886-2.84 1.886-5.252 0-2.411-.637-4.126-1.902-5.144-1.265-1.019-3.038-1.555-5.321-1.555h-9.014v13.665h9.014c2.283 0 4.062-.59 5.337-1.714ZM493.368 69.21h-17.051l-3.205 9.539h-10.106l16.515-46.3h10.927l16.387 46.3h-10.487l-2.98-9.539Zm-2.7-7.93-5.777-18.22-5.97 18.22h11.747ZM546.924 78.749h-9.673l-18.9-32.903V78.75h-9.013v-46.3h10.138l18.434 32.314V32.449h9.014v46.3ZM590.083 32.45l-15.481 28.883v17.416h-9.673V61.333l-16.012-28.884h11.398l9.609 20.15 9.2-20.15h10.96Z"/></g><g fill-rule="nonzero"><path d="M203.359 93.044c.049-1.35.282-2.332.702-2.945.755-1.105 2.21-1.657 4.37-1.657h.629c.214.03.46.03.736.061v2.946c-.338 0-.58-.03-.727-.03h-.424c-.982 0-1.57.245-1.76.736-.194.521-.29 1.81-.29 3.896h3.201v2.547h-3.237v16.63h-3.2v-16.63h-2.68v-2.547h2.68v-3.007ZM211.03 95.96h3.074v3.344c.252-.645.868-1.442 1.85-2.363.985-.951 2.117-1.411 3.4-1.411.058 0 .16 0 .304.03.144 0 .39.031.74.062v3.436c-.194-.061-.372-.061-.532-.092h-.53c-1.63 0-2.885.522-3.76 1.565-.874 1.043-1.313 2.24-1.313 3.62v11.078h-3.234v-19.27ZM229.378 95.53c1.366 0 2.691.337 3.974.982 1.282.613 2.258 1.472 2.93 2.485.647.951 1.077 2.086 1.295 3.375.19.89.288 2.301.288 4.265h-14.114c.058 1.933.521 3.529 1.384 4.695.862 1.196 2.2 1.78 4.01 1.78 1.688 0 3.038-.553 4.044-1.688a5.552 5.552 0 0 0 1.224-2.24h3.182c-.086.706-.365 1.503-.837 2.363a9.344 9.344 0 0 1-1.59 2.147c-.985.952-2.2 1.596-3.651 1.933-.78.185-1.66.277-2.642.277-2.396 0-4.43-.86-6.097-2.608-1.663-1.75-2.497-4.204-2.497-7.334 0-3.099.837-5.584 2.516-7.517 1.678-1.933 3.872-2.915 6.581-2.915Zm5.161 8.53c-.132-1.412-.439-2.516-.917-3.375-.887-1.535-2.369-2.332-4.443-2.332-1.485 0-2.731.552-3.737 1.626-1.007 1.074-1.54 2.424-1.602 4.08h10.7ZM248.015 95.53c1.366 0 2.691.337 3.974.982 1.283.613 2.258 1.472 2.93 2.485.648.951 1.077 2.086 1.295 3.375.19.89.285 2.301.285 4.265h-14.11c.057 1.933.52 3.529 1.383 4.695.862 1.196 2.2 1.78 4.01 1.78 1.688 0 3.038-.553 4.044-1.688a5.546 5.546 0 0 0 1.222-2.24h3.181c-.082.706-.362 1.503-.834 2.363a9.264 9.264 0 0 1-1.593 2.147c-.981.952-2.197 1.596-3.648 1.933-.78.185-1.66.277-2.642.277-2.4 0-4.43-.86-6.097-2.608-1.666-1.75-2.497-4.204-2.497-7.334 0-3.099.837-5.584 2.516-7.517 1.678-1.933 3.872-2.915 6.581-2.915Zm5.158 8.53c-.132-1.412-.435-2.516-.914-3.375-.89-1.535-2.369-2.332-4.443-2.332-1.485 0-2.73.552-3.737 1.626-1.01 1.074-1.54 2.424-1.602 4.08h10.696ZM258.724 88.81h3.237v26.41h-3.237zM272.614 113.142c2.145 0 3.615-.828 4.413-2.455.798-1.595 1.196-3.405 1.196-5.4 0-1.81-.288-3.252-.865-4.388-.908-1.78-2.48-2.67-4.71-2.67-1.976 0-3.415.768-4.314 2.271-.899 1.504-1.347 3.345-1.347 5.462 0 2.056.448 3.774 1.347 5.124.9 1.381 2.326 2.056 4.28 2.056Zm.126-17.735c2.48 0 4.578.828 6.29 2.485 1.716 1.657 2.572 4.081 2.572 7.303 0 3.1-.755 5.676-2.265 7.702-1.51 2.025-3.854 3.037-7.03 3.037-2.647 0-4.752-.89-6.311-2.7-1.559-1.78-2.335-4.204-2.335-7.21 0-3.253.82-5.83 2.46-7.733 1.642-1.933 3.849-2.884 6.62-2.884ZM290.405 95.622c1.51 0 2.829.368 3.955 1.135.61.399 1.233 1.013 1.869 1.81v-2.424h2.985v17.52c0 2.455-.359 4.358-1.08 5.8-1.34 2.608-3.875 3.897-7.603 3.897-2.075 0-3.817-.46-5.232-1.381-1.414-.92-2.206-2.393-2.375-4.357h3.293c.153.859.466 1.534.932 1.994.734.706 1.884 1.074 3.452 1.074 2.483 0 4.106-.859 4.873-2.639.457-1.012.666-2.853.629-5.492-.648.982-1.424 1.688-2.335 2.179-.912.49-2.117.736-3.615.736-2.086 0-3.912-.767-5.474-2.24-1.565-1.473-2.347-3.927-2.347-7.333 0-3.222.789-5.738 2.366-7.548 1.574-1.81 3.476-2.731 5.707-2.731Zm5.824 9.88c0-2.363-.491-4.142-1.473-5.278-.982-1.166-2.237-1.749-3.759-1.749-2.277 0-3.835 1.074-4.673 3.222-.445 1.135-.666 2.608-.666 4.48 0 2.148.442 3.805 1.323 4.94.88 1.135 2.065 1.688 3.55 1.688 2.325 0 3.96-1.044 4.909-3.13.525-1.197.789-2.578.789-4.173ZM309.886 113.142c2.145 0 3.617-.828 4.415-2.455.795-1.595 1.194-3.405 1.194-5.4 0-1.81-.286-3.252-.862-4.388-.912-1.78-2.483-2.67-4.71-2.67-1.98 0-3.415.768-4.314 2.271-.9 1.504-1.35 3.345-1.35 5.462 0 2.056.45 3.774 1.35 5.124.899 1.381 2.322 2.056 4.277 2.056Zm.126-17.735c2.482 0 4.578.828 6.293 2.485 1.715 1.657 2.571 4.081 2.571 7.303 0 3.1-.755 5.676-2.264 7.702-1.513 2.025-3.854 3.037-7.03 3.037-2.651 0-4.753-.89-6.312-2.7-1.558-1.78-2.338-4.204-2.338-7.21 0-3.253.823-5.83 2.464-7.733 1.642-1.933 3.848-2.884 6.616-2.884ZM321.656 111.301h3.759v3.918h-3.759zM329.272 95.96h3.2v2.73c.767-.92 1.46-1.626 2.083-2.056 1.068-.736 2.28-1.104 3.633-1.104 1.535 0 2.768.399 3.704 1.135.528.43 1.006 1.074 1.439 1.902.718-1.012 1.565-1.78 2.534-2.27.97-.522 2.062-.767 3.271-.767 2.59 0 4.351.95 5.287 2.823.503 1.012.755 2.362.755 4.05v12.826h-3.363V101.85c0-1.29-.32-2.179-.96-2.64-.642-.49-1.424-.736-2.348-.736-1.27 0-2.362.43-3.28 1.289-.917.86-1.374 2.27-1.374 4.265v11.2h-3.293v-12.58c0-1.29-.153-2.24-.466-2.854-.491-.89-1.409-1.35-2.75-1.35-1.224 0-2.334.49-3.335 1.442-1 .92-1.503 2.639-1.503 5.124v10.218h-3.234v-19.27ZM366.12 95.53c1.365 0 2.69.337 3.973.982 1.283.613 2.259 1.472 2.93 2.485.648.951 1.08 2.086 1.295 3.375.19.89.289 2.301.289 4.265h-14.115c.062 1.933.522 3.529 1.384 4.695.865 1.196 2.2 1.78 4.01 1.78 1.691 0 3.038-.553 4.045-1.688a5.516 5.516 0 0 0 1.224-2.24h3.182c-.083.706-.362 1.503-.838 2.363a9.344 9.344 0 0 1-1.59 2.147c-.981.952-2.2 1.596-3.65 1.933-.78.185-1.66.277-2.643.277-2.396 0-4.427-.86-6.093-2.608-1.666-1.75-2.501-4.204-2.501-7.334 0-3.099.84-5.584 2.52-7.517 1.674-1.933 3.868-2.915 6.578-2.915Zm5.16 8.53c-.131-1.412-.438-2.516-.917-3.375-.887-1.535-2.369-2.332-4.44-2.332-1.488 0-2.734.552-3.74 1.626-1.006 1.074-1.54 2.424-1.602 4.08h10.7Z"/></g><path d="M76.074.088C58.79.855 43.226 6.842 29.163 18.134c-3.17 2.546-9.05 8.483-11.654 11.77C7.242 42.861 1.63 57.07.184 73.771c-.386 4.448-.137 13.026.499 17.246 1.437 9.534 3.455 16.142 7.39 24.206 7.66 15.691 19.874 28.181 35.272 36.067 8.7 4.455 16.638 6.84 27.607 8.296 4.162.552 13.47.552 18.103 0 18.754-2.234 34.975-10.093 48-23.255 6.086-6.15 10.705-12.625 14.597-20.464 5.388-10.85 7.922-20.987 8.307-33.238.708-22.472-7.812-43.868-23.778-59.718-4.754-4.719-8.934-8.037-14.136-11.221C108.31 3.282 92.726-.651 76.074.088m0 7.787c-4.95.49-6.547.688-8.814 1.094-14.736 2.64-27.473 9.33-38.255 20.096C17.46 40.595 10.522 54.92 8.404 71.605c-.54 4.247-.541 12.811-.003 17.016 1.711 13.382 6.326 24.747 14.4 35.47.994 1.317 3.739 4.344 6.101 6.726 4.48 4.515 8.254 7.577 13.11 10.633 2.931 1.846 9.202 4.954 12.344 6.12 14.864 5.51 31.438 6.024 46.847 1.45 8.298-2.463 16.681-6.891 23.82-12.58 3.206-2.556 8.895-8.28 11.441-11.511 4.558-5.784 8.894-13.473 11.285-20.012 6.682-18.275 5.6-38.87-2.963-56.424-5.778-11.843-14.168-21.518-24.813-28.613-9.542-6.358-19.46-10.02-31.275-11.544-2.788-.36-10.72-.65-12.624-.461m-16.51 12.58c-8.292 1.083-15.74 7.631-18.725 16.466-1.231 3.641-1.449 5.301-1.434 10.958.013 5.144.031 5.342.771 8.148 1.477 5.6 4.625 10.924 9.22 15.6 2.396 2.438 6.405 5.85 6.873 5.85.39 0 4.917-4.033 5.456-4.86.394-.605.387-.648-.2-1.35-.333-.399-2.17-2.046-4.082-3.66-3.742-3.159-5.387-4.974-7.237-7.983-3.73-6.067-4.35-13.461-1.7-20.31 2.685-6.94 7.662-10.61 14.348-10.578 2.827.014 4.652.487 7.741 2.006 3.92 1.927 7.99 5.395 13.424 11.44 2.886 3.21 4.132 4.239 4.895 4.046 1.021-.258 6.446-4.33 6.53-4.9.097-.664-3.55-4.383-7.103-7.243a127.525 127.525 0 0 1-4.66-3.967c-4.09-3.705-6.276-5.311-9.257-6.804-5.131-2.57-9.961-3.499-14.86-2.86m34.136.002c-3.46.477-8.614 2.183-11.257 3.726-.926.54-.99.639-.735 1.12.408.77 2.945 3.163 4.686 4.42 1.404 1.015 1.56 1.072 2.263.824.416-.146 1.663-.587 2.772-.98 2.549-.902 4.413-1.104 6.812-.738 2.277.346 4.396 1.118 6.118 2.226 1.542.992 4.053 3.5 5.186 5.18.624.926 1.034 1.28 1.662 1.437 1.107.277 7.632.811 7.803.64.2-.202-.364-1.952-1.267-3.927C114 26.198 106.177 20.732 97.63 20.332c-1.244-.058-3.013-.002-3.93.124M68.27 35.123c-1.816 1.835-3.347 3.691-4.323 5.24-.374.593-.373.657.025 1.058.42.421 5.158 3.59 6.217 4.156.496.266.673.182 1.905-.897 2.16-1.89 5.528-5.453 5.528-5.847 0-.887-5.858-5.693-6.938-5.693-.25 0-1.33.887-2.415 1.983M50.376 40.15c-.807 1.275-1.702 5.426-1.538 7.13l.081.838 2.036.156c4.301.33 7.9 1.763 11.78 4.688 2.664 2.01 11.988 11.23 17.107 16.917 3.781 4.201 7.805 8.077 8.384 8.077.67 0 5.951-5.044 5.784-5.525-.072-.209-10.567-11.057-18.294-18.91-5.746-5.84-10.094-9.086-14.825-11.064-1.338-.56-9.41-2.847-10.048-2.847-.07 0-.28.243-.467.54m55.778.072c-2.46.385-5.723 1.446-8.005 2.602-4.05 2.052-10.227 6.796-14.04 10.78l-2.444 2.555.373.726c.206.4 1.434 1.814 2.73 3.145l2.358 2.418.667-.416c.367-.23 2.543-2.328 4.835-4.665 4.506-4.59 6.815-6.364 10.03-7.706 3.036-1.266 5.456-1.75 8.669-1.735 6.22.03 12.205 2.2 15.742 5.704 3.154 3.126 4.652 8.598 3.546 12.952-1.165 4.582-6.033 11.522-11.037 15.735-3.212 2.705-6 5.26-6.385 5.851-.443.68-.37.824 2.18 4.286 2.455 3.332 2.553 3.416 3.357 2.886 1.365-.9 11.236-11.362 14.078-14.921 2.658-3.328 4.715-7.383 5.845-11.523.754-2.762.749-8.732-.01-11.431-2.241-7.965-8.999-14.093-18.13-16.443-4.33-1.115-10.249-1.444-14.359-.8m-71.188 2.245c-5.75 2.505-10.48 6.996-12.974 12.316-1.153 2.46-1.56 4.214-1.704 7.355-.202 4.376.807 8.576 3.17 13.199 1.742 3.406 1.375 3.361 4.142.506 1.319-1.36 2.668-2.886 3-3.39l.604-.918-.972-1.944c-1.23-2.461-1.68-4.202-1.675-6.485.006-3.552 1.916-7.397 5.027-10.118.802-.701 1.877-1.652 2.39-2.114l.932-.839.223-3.115c.334-4.652.317-5.154-.18-5.144-.229.005-1.121.316-1.983.691m76.588 9.066c-.39 3.76-1.888 7.415-4.495 10.964-2.439 3.321-13.846 14.395-19.733 19.156-1.41 1.14-3.552 3.026-4.76 4.191-2.145 2.068-2.19 2.133-1.87 2.736.486.913 3.918 4.81 4.779 5.428l.745.533.895-.624c.492-.343 2.443-2.206 4.336-4.14 1.892-1.934 6.12-5.961 9.395-8.95 9.453-8.625 12.865-12.482 15.145-17.118.522-1.062 1.685-4.119 2.585-6.793l1.635-4.864-.512-.337c-1.402-.922-4.787-1.8-6.945-1.8h-1.032l-.168 1.618m-58.91 1.715c-1.275 1.405-1.938 2.328-1.938 2.698 0 1.09 2.514 5.094 4.232 6.742l.699.67 3.525-3.732 3.525-3.732-.572-.618c-1.44-1.56-5.835-4.161-7.029-4.162-.329 0-1.173.739-2.441 2.134m49.36-1.091c-1.79.971-3.51 2.231-4.606 3.377l-.827.864 7.044 7.058 1.17-1.318c1.354-1.525 3.257-4.787 3.475-5.955.141-.757.036-.917-1.84-2.816-1.206-1.219-2.182-2.011-2.473-2.008-.265.003-1.14.362-1.943.798m15.083 13.876c-1.988 2.834-3.737 5.568-3.737 5.843 0 .492 6.883 6.793 7.261 6.647.465-.18 3.446-3.736 4.382-5.228.409-.652.743-1.376.743-1.609 0-.755-6.665-7.151-7.453-7.151-.08 0-.618.674-1.196 1.498m-78.35.479c-.965.956-2.873 3.032-4.24 4.613a505.628 505.628 0 0 1-4.955 5.632c-4.23 4.722-6.474 8.357-7.988 12.942-2.66 8.06-1.042 15.83 4.54 21.8 5.003 5.349 11.822 8.224 20.323 8.57 8.356.34 14.448-1.875 22.824-8.298 2.68-2.055 6.992-6.124 7.84-7.396.333-.5.314-.613-.24-1.457-1.016-1.544-4.476-5.07-4.975-5.07-.278 0-2.153 1.676-4.724 4.224-5.022 4.979-6.232 5.947-9.416 7.53-6.486 3.225-13.266 3.32-19.723.275-4.105-1.936-6.438-4.037-7.919-7.135-1.45-3.036-1.862-6.153-1.167-8.84.832-3.214 3.689-8.174 6.848-11.89.849-.998 2.96-3.033 4.69-4.52 4.002-3.44 5.724-5.175 5.724-5.766 0-.257-.873-1.63-1.94-3.05-2.282-3.04-3.044-3.901-3.45-3.901-.163 0-1.087.781-2.052 1.737m27.89 4.314c-3.036 2.933-7.727 7.39-10.424 9.906-10.226 9.54-12.673 12.912-15.951 21.988-1.52 4.208-1.675 4.952-1.127 5.41.762.636 4.334 1.726 6.109 1.864l1.843.143.174-1.531c.428-3.766 2.14-7.84 4.773-11.36 2.726-3.644 13.977-14.707 19.105-18.786 2.697-2.145 5.639-4.8 6.606-5.963l.654-.787-.65-.989c-.995-1.513-4.656-5.228-5.151-5.228-.248 0-2.84 2.318-5.96 5.333m1.368 13.01c-2.28 2.07-3 2.878-3 3.364 0 .092 2.332 2.553 5.182 5.468 2.85 2.914 6.603 6.863 8.34 8.774 4.87 5.362 9.91 9.93 14.085 12.766 2.244 1.524 6.318 3.468 9.65 4.603 1.43.487 3.185 1.146 3.9 1.465.716.318 1.444.579 1.617.579.783 0 2.484-5.16 2.484-7.535 0-.687-.1-.862-.536-.94-4.824-.864-6.46-1.425-9.593-3.286-2.292-1.361-4.76-3.242-7.49-5.71-5.588-5.045-10.682-10.132-13.972-13.951-3.566-4.14-7.303-7.882-7.87-7.882-.155 0-1.414 1.028-2.797 2.284m-30.74-.555c-1.635 1.818-3.387 4.39-3.597 5.28-.137.58.052.873 1.597 2.477 2.118 2.199 4.764 4.414 5.273 4.414.363 0 4.649-6.114 4.863-6.937.073-.28-.917-1.379-3.217-3.565-1.827-1.737-3.38-3.159-3.45-3.159-.07 0-.731.67-1.468 1.49m64.183-.154c-1.43 1.136-4.764 4.375-4.764 4.627 0 .343 1.416 1.715 4.917 4.765 5.349 4.66 8.054 8.474 9.733 13.718.876 2.737 1.087 7.1.488 10.083-1.249 6.21-4.707 11.592-8.72 13.568-4.742 2.337-9.385 2.191-14.622-.458-4.296-2.173-7.06-4.432-13.471-11.01-2.424-2.488-4.585-4.52-4.803-4.518-.415.004-5.379 3.463-6.37 4.44-.568.557-.57.572-.139 1.24.937 1.452 3.803 4.174 9.135 8.677 7.144 6.032 8.685 7.181 11.585 8.64 11.329 5.696 22.863 3.372 29.9-6.024 3.695-4.934 5.568-11.46 5.557-19.366-.006-4.004-.479-6.693-1.797-10.213-1.583-4.231-4.78-8.949-8.934-13.19-2.431-2.482-6.139-5.837-6.446-5.833-.097.001-.66.385-1.249.854m30.313 1.667c-1.297 1.314-2.66 2.797-3.03 3.295l-.67.905 1.099 2.21c1.955 3.932 2.254 6.928 1.031 10.32-1.109 3.072-2.878 5.34-6.027 7.725-.984.745-1.88 1.585-1.992 1.867-.2.505-.72 5.977-.717 7.549.002.758.04.795.657.64 2.974-.747 7.299-3.343 10.103-6.063 3.247-3.149 5.18-6.227 6.256-9.965 1.186-4.118 1.026-8.553-.473-13.063-.807-2.431-2.52-6.041-3.424-7.218l-.456-.593-2.357 2.39M53.806 98.148c-1.589 1.986-3.451 5.688-3.255 6.472.158.634 3.788 4.013 4.31 4.013.177 0 1.27-.482 2.43-1.07 2.32-1.178 4.848-3.111 4.848-3.707 0-.365-6.612-7.206-6.964-7.206-.093 0-.71.674-1.369 1.498m46.028 1.973c-1.736 1.89-3.157 3.543-3.157 3.675 0 .81 5.412 4.51 6.928 4.736.755.113.955-.017 2.779-1.794 1.08-1.054 1.965-2.094 1.965-2.312 0-.762-1.69-3.621-3.362-5.69-.929-1.147-1.757-2.078-1.843-2.068-.085.01-1.574 1.563-3.31 3.453M85.85 116.96c-1.468 1.549-3.067 3.266-3.553 3.815l-.885.999.722.827c1.457 1.67 5.585 4.485 6.576 4.485 1.023 0 6.775-6.73 6.775-7.926 0-.232-.401-.736-.893-1.12-1.243-.972-5.662-3.896-5.888-3.896-.102 0-1.386 1.268-2.854 2.816m-45.537 4.967c-.213.556.953 3.593 2.22 5.782 2.73 4.72 6.119 7.894 10.862 10.175 5.324 2.56 11.499 2.762 17.962.586 2.504-.843 6.264-2.642 6.264-2.997 0-.638-6.19-5.99-6.928-5.99-.215 0-1.121.333-2.014.74-2.337 1.066-4.589 1.494-6.89 1.31-4.716-.38-8.946-3.036-11.766-7.391-.566-.875-1.207-1.644-1.425-1.708-.217-.064-1.68-.23-3.253-.37-1.572-.14-3.314-.314-3.872-.387-.793-.104-1.046-.05-1.16.25"/></svg>