<svg width="12" height="14" viewBox="0 0 12 14" fill="none" xmlns="http://www.w3.org/2000/svg">
<path d="M10.882 0.302021C10.7895 0.209317 10.6796 0.135769 10.5586 0.085588C10.4377 0.0354065 10.308 0.00957632 10.177 0.00957632C10.0461 0.00957632 9.91637 0.0354065 9.79539 0.085588C9.67442 0.135769 9.56453 0.209317 9.47202 0.302021L5.59202 4.17202L1.70202 0.29202C1.60944 0.199438 1.49953 0.125998 1.37856 0.0758934C1.2576 0.0257884 1.12795 9.75509e-10 0.997021 0C0.86609 -9.75509e-10 0.736441 0.0257884 0.615477 0.0758934C0.494513 0.125998 0.384602 0.199438 0.29202 0.29202C0.199438 0.384602 0.125998 0.494513 0.0758934 0.615477C0.0257884 0.736441 -9.75509e-10 0.86609 0 0.997021C9.75509e-10 1.12795 0.0257884 1.2576 0.0758934 1.37856C0.125998 1.49953 0.199438 1.60944 0.29202 1.70202L4.88202 6.29202C5.27202 6.68202 5.90202 6.68202 6.29202 6.29202L10.882 1.70202C10.9747 1.6105 11.0482 1.5015 11.0984 1.38134C11.1486 1.26118 11.1745 1.13225 11.1745 1.00202C11.1745 0.871795 11.1486 0.742866 11.0984 0.622705C11.0482 0.502544 10.9747 0.393543 10.882 0.302021Z" fill="white"/>
<path d="M10.882 6.89199C10.7895 6.79928 10.6796 6.72574 10.5587 6.67555C10.4377 6.62537 10.308 6.59954 10.177 6.59954C10.0461 6.59954 9.91638 6.62537 9.79541 6.67555C9.67443 6.72574 9.56454 6.79928 9.47203 6.89199L5.59203 10.762L1.71203 6.88199C1.52505 6.69501 1.27146 6.58997 1.00703 6.58997C0.742604 6.58997 0.489008 6.69501 0.302031 6.88199C0.115053 7.06896 0.0100098 7.32256 0.0100098 7.58699C0.0100098 7.85141 0.115053 8.10501 0.302031 8.29199L4.89203 12.882C5.28203 13.272 5.91203 13.272 6.30203 12.882L10.892 8.29199C11.0756 8.10462 11.1776 7.85223 11.1757 7.58992C11.1739 7.32762 11.0683 7.07671 10.882 6.89199Z" fill="white"/>
</svg>
